<?xml version="1.0" standalone="no"?>
<!DOCTYPE svg PUBLIC "-//W3C//DTD SVG 20010904//EN"
 "http://www.w3.org/TR/2001/REC-SVG-20010904/DTD/svg10.dtd">
<svg version="1.0" xmlns="http://www.w3.org/2000/svg"
 width="1280.000000pt" height="590.000000pt" viewBox="0 0 1280.000000 590.000000"
 preserveAspectRatio="xMidYMid meet">
<metadata>
Created by potrace 1.15, written by Peter Selinger 2001-2017
</metadata>
<g transform="translate(0.000000,590.000000) scale(0.100000,-0.100000)"
fill="#eeeeee" stroke="none">
<path d="M5597 5828 c-59 -120 -90 -284 -132 -702 -17 -165 -19 -492 -5 -603
24 -183 98 -389 204 -563 145 -238 341 -483 576 -719 86 -86 142 -150 130
-146 -13 4 -235 97 -494 207 -599 255 -732 307 -1051 411 -422 138 -660 193
-1005 233 -181 21 -497 21 -660 0 -124 -16 -463 -74 -593 -102 -380 -79 -713
-120 -887 -109 -101 7 -240 27 -304 46 -32 9 -36 13 -25 24 8 7 37 20 65 29
144 47 305 211 335 343 11 46 10 57 -9 102 -12 27 -22 57 -22 65 0 20 -66 23
-73 4 -2 -7 -8 -10 -12 -5 -5 4 -3 13 3 19 17 17 15 35 -8 58 -11 11 -34 42
-51 69 -16 27 -36 52 -44 55 -11 4 -13 14 -8 36 4 24 0 36 -17 55 -13 14 -29
25 -36 25 -16 0 -64 57 -64 76 0 22 -20 16 -49 -15 -17 -19 -37 -28 -56 -28
-37 0 -69 -37 -55 -63 15 -27 13 -36 -15 -66 -14 -15 -25 -35 -25 -45 0 -12
-7 -19 -19 -19 -10 0 -41 -24 -68 -53 -93 -98 -105 -200 -40 -338 41 -88 78
-138 174 -236 39 -40 68 -73 63 -73 -19 0 -154 63 -237 111 -146 83 -308 223
-476 412 l-69 76 40 48 c52 62 107 173 122 247 22 109 -10 205 -104 304 -84
90 -266 197 -382 225 -33 8 -67 18 -76 22 -13 5 -19 -2 -29 -35 -7 -23 -23
-49 -36 -57 -35 -23 -30 -72 13 -149 l36 -65 -40 -35 c-22 -19 -50 -55 -62
-80 -22 -45 -22 -47 -6 -108 30 -108 123 -193 282 -256 129 -52 207 -97 255
-147 81 -85 225 -267 204 -259 -61 26 -130 39 -215 40 -114 1 -143 -12 -201
-91 -38 -51 -38 -52 -20 -74 18 -23 18 -24 -4 -54 -13 -16 -37 -60 -53 -97
-23 -51 -40 -73 -66 -89 -37 -21 -41 -28 -52 -94 -4 -22 -13 -53 -21 -69 -17
-33 -7 -46 37 -46 16 0 34 -11 51 -31 l26 -32 69 13 c80 15 104 25 104 45 0 7
5 17 11 21 8 5 10 -1 5 -19 -8 -35 12 -53 74 -66 123 -27 214 1 291 87 60 66
122 187 149 288 12 43 23 85 25 92 3 8 23 0 61 -24 130 -84 386 -174 565 -201
l109 -17 -117 -32 c-416 -114 -663 -297 -819 -605 -43 -86 -129 -303 -138
-347 -3 -19 -3 -45 0 -58 8 -32 21 -24 130 77 96 89 99 91 398 210 223 90 277
115 356 169 65 45 168 149 200 203 31 52 60 153 60 208 0 51 18 161 28 171 4
3 70 14 147 23 77 9 291 38 475 65 764 113 969 125 1430 89 137 -11 450 -55
459 -65 3 -3 -25 -4 -64 0 -341 28 -607 5 -908 -80 -333 -93 -664 -300 -874
-546 -251 -294 -388 -637 -410 -1023 -33 -602 334 -1006 987 -1085 299 -36
664 36 925 183 93 52 128 80 226 177 100 99 122 127 162 206 69 135 91 238 84
389 -7 132 -30 242 -75 350 -47 113 -95 206 -101 197 -3 -5 -16 6 -28 24 -12
19 -18 34 -12 34 6 0 7 5 4 10 -9 15 -35 12 -35 -4 0 -8 10 -22 22 -30 12 -9
22 -26 23 -38 0 -13 17 -66 37 -118 60 -152 81 -273 75 -410 -17 -354 -199
-609 -562 -786 -153 -75 -278 -110 -445 -126 -462 -43 -806 129 -1009 503
-253 466 -175 994 215 1459 108 128 323 301 469 377 177 91 401 159 628 189
164 22 534 14 722 -15 374 -57 815 -182 1325 -374 442 -168 834 -323 837 -333
2 -6 -44 -27 -106 -47 -379 -126 -767 -356 -882 -524 -42 -61 -173 -327 -226
-458 -56 -140 -102 -294 -109 -365 -5 -58 5 -111 23 -117 6 -2 40 36 75 84 36
49 82 103 102 121 84 74 236 163 486 286 296 145 333 165 441 247 122 92 200
203 247 349 26 80 46 253 39 332 -3 40 -2 58 6 58 7 0 66 -21 132 -46 210 -80
543 -199 780 -280 127 -42 232 -79 234 -81 9 -7 -33 -123 -91 -248 -61 -133
-98 -250 -98 -314 0 -49 48 -147 96 -196 76 -78 175 -115 341 -130 190 -18
546 72 902 227 146 63 463 222 566 282 42 25 79 46 81 46 17 0 -39 -65 -171
-200 -142 -146 -197 -214 -226 -285 -9 -21 -13 -92 -13 -225 l-1 -195 -47
-100 c-58 -124 -62 -150 -45 -251 18 -100 52 -167 111 -222 60 -56 85 -64 181
-64 91 1 138 14 390 113 189 73 254 82 300 39 40 -37 54 -80 71 -219 34 -283
63 -325 262 -387 63 -20 146 -50 185 -67 135 -57 277 -35 335 53 28 42 27 63
-12 205 -30 109 -30 145 1 268 19 77 13 156 -33 407 -52 291 -56 338 -55 661
2 355 -1 375 -85 590 -29 75 -58 168 -65 205 -7 42 -19 78 -32 91 -47 52 -241
87 -447 81 -138 -4 -149 -6 -213 -35 -74 -35 -168 -117 -198 -173 -16 -30 -18
-32 -19 -12 0 41 -40 103 -121 187 -96 100 -100 119 -39 196 69 87 45 148 -67
178 -46 13 -47 14 -57 54 l-7 29 88 -4 87 -3 21 40 c12 22 29 41 38 43 10 2
15 7 12 11 -2 5 18 6 45 3 27 -2 70 -1 95 2 62 10 85 46 85 134 0 118 32 156
168 198 165 50 249 110 272 194 39 139 -42 745 -151 1130 -41 145 -89 244
-131 270 -43 26 -46 26 -135 -10 -105 -42 -143 -40 -251 14 -252 126 -526 140
-598 31 -9 -14 -23 -56 -31 -93 -17 -83 -51 -137 -101 -158 -33 -14 -50 -15
-144 -4 -147 17 -209 -1 -252 -73 -42 -72 -95 -101 -253 -136 -99 -22 -134
-42 -185 -102 -52 -61 -80 -144 -86 -251 -5 -106 10 -162 73 -259 32 -50 59
-77 111 -111 89 -59 149 -76 309 -88 279 -21 378 -52 531 -168 105 -79 159
-141 199 -228 37 -78 77 -118 188 -187 102 -63 93 -66 -61 -21 -79 24 -185 77
-407 204 -217 125 -391 200 -460 200 -66 0 -136 -26 -231 -86 -158 -101 -172
-107 -233 -108 -36 0 -84 10 -134 27 -150 53 -246 37 -314 -52 -49 -64 -46
-111 10 -165 23 -22 68 -60 99 -83 74 -55 80 -80 38 -161 -38 -71 -34 -85 35
-132 77 -53 79 -70 30 -180 -19 -43 -35 -89 -35 -103 l0 -26 -82 38 c-46 21
-135 55 -198 76 -181 60 -975 370 -998 390 -1 1 29 67 67 146 69 145 123 302
141 414 16 99 12 270 -9 365 -57 253 -133 385 -502 872 -302 399 -410 561
-447 678 -12 36 -35 133 -53 215 -28 138 -43 175 -70 175 -4 0 -23 -33 -42
-72z m-4247 -1164 c0 -8 -5 -12 -10 -9 -6 4 -8 11 -5 16 9 14 15 11 15 -7z
m-104 -191 c-7 -7 -26 7 -26 19 0 6 6 6 15 -2 9 -7 13 -15 11 -17z m3410 -783
c150 -28 234 -49 269 -66 17 -8 22 -12 13 -10 -10 3 -104 24 -210 47 -176 37
-221 49 -191 49 6 0 60 -9 119 -20z m454 -95 c19 -7 28 -13 20 -13 -8 0 -31 6
-50 13 -19 7 -28 13 -20 13 8 0 31 -6 50 -13z m4560 -465 c13 -9 13 -10 0 -10
-8 0 -22 5 -30 10 -13 9 -13 10 0 10 8 0 22 -5 30 -10z m-5403 -659 c1 -24 1
-25 -13 -6 -17 23 -18 32 -1 32 6 0 13 -12 14 -26z m5353 -320 c-6 -12 -15
-21 -21 -21 -10 0 -5 13 14 38 15 19 20 7 7 -17z"/>
<path d="M10902 5349 c-164 -27 -242 -114 -262 -290 -8 -66 -5 -112 11 -233
40 -304 44 -371 26 -477 -32 -191 -117 -439 -217 -640 -57 -111 -71 -172 -68
-275 3 -76 5 -89 20 -88 10 1 14 -4 11 -12 -2 -7 0 -46 6 -86 15 -96 38 -120
110 -111 45 5 50 3 66 -21 10 -14 23 -63 29 -108 15 -104 28 -114 94 -75 146
86 260 119 567 162 166 23 174 26 275 119 129 119 150 127 318 126 76 -1 152
3 170 9 57 17 127 69 200 145 59 62 72 82 81 125 14 64 14 227 1 341 -5 47
-14 157 -20 244 -6 88 -18 180 -27 205 -30 90 -110 206 -228 329 -154 161
-204 182 -278 121 l-38 -32 6 -62 c7 -58 5 -64 -13 -69 -34 -11 -92 27 -162
105 -106 117 -125 150 -169 288 -46 143 -78 191 -153 228 -76 38 -234 52 -356
32z"/>
<path d="M12460 3471 c-193 -36 -567 -227 -750 -385 -98 -84 -181 -135 -252
-153 -58 -15 -77 -16 -150 -5 -78 11 -275 15 -235 5 18 -5 18 -5 0 -19 -10 -7
-25 -14 -34 -14 -24 0 -170 -158 -231 -248 -70 -104 -108 -179 -101 -200 11
-32 57 -73 127 -114 108 -63 173 -136 241 -268 67 -132 124 -196 200 -224 28
-10 122 -54 210 -97 172 -85 226 -100 345 -99 279 4 456 54 548 154 l42 46 0
104 c0 57 3 118 6 135 9 43 78 117 187 202 107 82 131 115 148 196 11 53 10
76 -10 194 -23 145 -23 157 20 314 15 58 21 113 22 200 2 114 1 123 -26 170
-41 74 -98 107 -191 111 -39 2 -91 -1 -116 -5z"/>
<path d="M4090 2750 c6 -11 13 -20 16 -20 2 0 0 9 -6 20 -6 11 -13 20 -16 20
-2 0 0 -9 6 -20z"/>
</g>
</svg>
